<?xml version="1.0" standalone="no"?>
<!DOCTYPE svg PUBLIC "-//W3C//DTD SVG 20010904//EN"
 "http://www.w3.org/TR/2001/REC-SVG-20010904/DTD/svg10.dtd">
<svg version="1.0" xmlns="http://www.w3.org/2000/svg"
 width="584.000000pt" height="584.000000pt" viewBox="0 0 584.000000 584.000000"
 preserveAspectRatio="xMidYMid meet">
<metadata>
Created by potrace 1.11, written by Peter Selinger 2001-2013
</metadata>
<g transform="translate(0.000000,584.000000) scale(0.100000,-0.100000)"
fill="#000000" stroke="none">
<path d="M2129 5779 c0 -19 -2 -50 -4 -69 -4 -45 -12 -174 -21 -315 -3 -60 -7
-111 -9 -113 -1 -1 -12 61 -25 138 -13 77 -26 140 -29 140 -3 0 -6 -91 -6
-202 l0 -203 -40 -2 c-187 -10 -246 -9 -241 4 3 7 1 13 -3 13 -5 0 -11 -7 -15
-15 -3 -10 -18 -15 -43 -14 l-38 2 40 7 c31 6 34 16 3 11 -3 0 -60 -3 -125 -6
-145 -7 -287 -19 -378 -31 -11 -1 -31 -3 -45 -3 -18 -1 -21 -4 -12 -10 10 -6
12 -28 8 -92 -12 -170 -18 -255 -21 -304 -2 -27 -4 -70 -4 -94 -1 -54 -7 -51
-16 9 -3 25 -8 52 -10 60 -2 8 -6 29 -9 45 -11 68 -20 130 -21 137 0 3 -2 9
-5 11 -3 3 -5 -88 -4 -201 0 -114 -1 -212 -3 -218 -3 -8 -38 -12 -96 -14 -51
-1 -132 -3 -182 -4 -56 -2 -76 -1 -52 4 45 8 64 23 22 16 -17 -2 -82 -7 -145
-11 -163 -8 -356 -24 -382 -31 -5 -1 -20 -2 -35 -3 -14 0 -24 -4 -21 -7 7 -6
76 -12 162 -13 33 -1 57 -3 55 -5 -4 -4 -81 -15 -113 -15 -33 -1 -13 -10 39
-16 28 -4 68 -11 90 -15 36 -7 37 -8 10 -10 -16 -1 -37 -3 -45 -5 -8 -1 -35
-6 -60 -10 -80 -12 -57 -16 77 -13 72 2 129 1 126 -2 -2 -3 -30 -10 -61 -16
l-57 -11 60 -3 c220 -9 504 -22 540 -25 17 -2 39 -3 51 -4 21 -1 21 -5 17
-128 -2 -70 -8 -132 -13 -139 -6 -6 -8 -13 -6 -15 10 -11 19 -210 21 -467 1
-322 -5 -341 -31 -97 -9 83 -16 66 -10 -25 3 -47 8 -123 11 -170 3 -47 7 -115
10 -152 16 -261 17 -278 3 -279 -143 -10 -273 -16 -245 -12 15 2 27 9 27 14 0
6 -3 8 -8 6 -4 -3 -47 -8 -97 -11 -208 -15 -286 -24 -293 -31 -3 -3 10 -5 29
-6 69 -1 108 -18 48 -20 l-34 -2 35 -6 c32 -7 30 -8 -28 -15 -35 -4 -61 -10
-58 -13 3 -3 47 -5 98 -5 51 0 85 -2 75 -5 -24 -6 -21 -19 6 -20 84 -2 330
-15 349 -18 21 -4 22 -3 5 9 -15 11 -8 13 45 10 33 -2 62 -5 64 -6 2 -3 7
-110 19 -393 3 -66 7 -156 10 -200 2 -44 6 -147 10 -230 3 -82 8 -193 11 -245
9 -172 14 -400 19 -775 2 -203 6 -386 9 -405 3 -19 8 -73 11 -120 6 -99 13
-152 25 -200 7 -28 8 -22 6 32 -2 37 0 65 4 63 4 -2 15 -32 24 -65 9 -33 20
-60 23 -60 3 0 3 7 0 15 -4 8 -2 17 2 20 5 2 12 -11 16 -31 13 -70 19 -22 18
137 -2 147 3 202 9 120 1 -18 5 -34 9 -36 3 -3 7 96 7 218 1 122 4 231 6 243
7 34 19 259 13 254 -3 -3 -8 -27 -12 -55 -9 -68 -22 -125 -30 -133 -4 -4 -5 2
-2 13 3 11 8 88 12 170 3 83 8 182 10 220 2 39 6 133 10 210 3 77 8 176 10
220 3 44 7 130 10 190 7 153 14 277 20 365 9 145 23 393 25 437 0 9 26 11 93
8 101 -4 237 -13 307 -20 103 -10 224 -14 192 -6 -18 5 -36 12 -40 16 -4 5 1
5 11 2 9 -4 46 -9 82 -13 61 -6 65 -8 66 -33 0 -14 2 -53 4 -86 27 -536 41
-1165 25 -1165 -6 0 -9 -4 -6 -8 2 -4 8 -48 11 -97 4 -50 8 -110 10 -135 2
-25 7 -83 10 -130 3 -47 8 -96 10 -110 3 -14 7 -41 10 -60 10 -56 14 -47 11
19 -2 33 0 61 4 61 4 0 13 -21 20 -47 7 -27 17 -52 23 -58 7 -7 8 -4 4 8 -4
10 -3 16 2 12 5 -3 12 -19 16 -36 13 -60 19 -15 18 138 -2 157 2 188 13 97 3
-27 7 -51 10 -53 2 -2 5 108 5 245 1 137 3 258 4 269 1 11 6 70 10 130 7 109
3 138 -9 60 -13 -85 -19 -111 -28 -125 -7 -12 -8 -10 -4 5 3 11 7 88 10 170 4
83 9 188 11 235 3 47 8 126 10 175 12 265 21 463 24 493 1 9 16 11 59 8 31 -3
104 -8 162 -11 58 -4 128 -8 155 -10 28 -2 44 -1 38 2 -7 2 -13 9 -13 14 0 6
3 8 8 6 4 -3 61 -8 127 -11 66 -4 134 -9 150 -12 l30 -4 -30 14 c-30 14 -30
14 -5 16 14 1 34 3 45 5 11 2 39 5 63 6 51 3 68 19 20 19 -84 0 -182 22 -119
27 24 2 160 22 186 27 11 3 35 5 53 5 46 1 32 17 -23 25 -60 10 -49 22 27 32
35 4 66 9 71 10 4 1 26 2 49 3 87 2 26 15 -137 27 -150 11 -153 15 -43 40 l83
19 -50 2 c-27 2 -140 5 -250 8 -110 2 -216 5 -235 7 -29 2 -153 -11 -260 -27
-14 -2 -45 -7 -70 -10 -25 -3 -53 -9 -64 -12 -11 -3 -16 -1 -12 5 5 8 19 12
111 28 17 3 34 10 39 14 5 5 1 7 -10 5 -10 -2 -47 -6 -80 -8 l-61 -4 2 31 c2
17 6 94 10 171 4 77 9 156 10 175 2 19 4 52 4 72 l1 37 108 -4 c59 -2 132 -7
162 -10 172 -16 362 -25 325 -16 l-30 9 33 1 c17 0 32 -2 32 -6 0 -5 45 -7
100 -7 60 1 100 -3 100 -9 0 -5 6 -4 15 3 8 6 18 10 22 7 4 -3 64 -8 133 -11
69 -4 148 -9 175 -11 28 -2 82 -7 120 -10 66 -6 69 -5 50 10 -11 9 -15 14 -10
12 6 -3 66 -8 134 -12 69 -3 128 -8 133 -11 4 -3 8 -1 8 5 0 5 -6 11 -12 14
-7 2 23 8 67 12 110 10 113 10 122 19 5 4 4 6 -2 5 -19 -5 -165 13 -165 20 0
6 216 41 253 41 4 0 7 4 7 10 0 10 -76 27 -95 21 -5 -1 -6 1 -2 6 5 4 12 8 15
9 16 1 138 18 145 20 4 1 26 2 49 3 81 2 26 13 -132 27 -47 4 -92 8 -100 10
-8 1 -19 3 -25 4 -5 1 31 13 80 25 l90 23 -220 2 c-262 2 -277 3 -291 12 -10
7 -125 -2 -224 -17 -178 -27 -275 -38 -238 -26 15 5 45 12 65 15 58 9 110 24
93 26 -8 1 -18 2 -21 2 -4 -1 -40 -4 -80 -7 -41 -3 -99 -7 -129 -10 -83 -8
-162 -14 -295 -20 -66 -4 -149 -8 -185 -10 -57 -3 -347 -17 -360 -17 -25 -1
-30 5 -26 30 3 15 7 74 10 132 3 60 1 87 -3 63 -4 -24 -11 -46 -15 -50 -5 -5
-6 1 -3 12 3 11 9 92 13 180 4 88 8 174 9 190 1 17 3 59 4 94 l1 63 107 -7
c59 -4 117 -9 130 -11 29 -6 30 4 1 16 -18 8 -15 9 17 5 22 -2 72 -7 110 -10
94 -8 159 -16 167 -21 4 -2 9 0 13 6 3 5 -3 10 -15 10 -12 0 -18 5 -15 10 4 6
10 8 13 6 4 -2 61 -7 127 -11 66 -3 147 -8 180 -10 177 -12 240 -15 335 -20
58 -3 130 -7 160 -9 l55 -4 -40 14 -40 14 65 -5 c36 -2 106 -8 155 -12 81 -7
158 -8 588 -4 134 1 179 15 54 17 -270 4 -396 9 -385 15 12 6 182 23 221 21 9
0 17 3 17 7 0 4 -10 7 -22 8 -13 1 -43 4 -68 7 -25 3 -70 8 -100 11 -30 3 -64
8 -75 10 -11 2 -27 4 -35 5 -13 2 158 27 309 46 30 3 62 8 70 9 9 2 33 4 54 4
62 1 34 17 -63 36 -50 10 -89 19 -87 21 4 4 36 9 132 19 33 4 70 8 83 10 13 2
55 7 93 11 38 4 68 9 65 11 -4 4 -20 6 -161 17 -38 4 -88 8 -110 11 -22 2 -74
7 -115 11 -41 3 -76 7 -78 9 -1 1 46 12 105 25 59 12 122 25 138 30 18 5 -102
9 -290 10 -382 2 -479 6 -483 19 -2 5 -9 8 -15 6 -33 -12 -138 -17 -402 -21
-269 -3 -339 4 -192 20 32 3 66 11 75 16 15 10 14 10 -3 6 -11 -3 -45 -8 -75
-11 -60 -5 -141 -15 -180 -20 -62 -8 -131 -15 -210 -20 -84 -5 -159 -10 -292
-20 l-68 -5 -1 72 c-1 40 -3 64 -6 53 -3 -11 -10 -24 -15 -30 -7 -7 -9 -7 -5
0 3 6 9 60 13 120 4 61 8 126 9 145 2 19 3 47 4 61 1 25 3 26 54 24 28 -2 144
-6 257 -10 113 -3 221 -8 240 -10 19 -2 73 -6 120 -10 47 -3 110 -7 140 -10
30 -2 84 -7 120 -9 81 -6 215 -17 258 -21 38 -3 41 2 10 15 -19 8 -15 9 17 5
42 -5 99 -10 225 -21 41 -3 80 -9 85 -12 6 -3 6 -1 2 4 -5 5 -34 14 -65 20
l-57 12 65 -4 c67 -4 157 -9 315 -19 50 -3 128 -8 175 -10 47 -3 119 -8 160
-10 239 -15 229 -15 185 0 -40 14 -40 14 34 9 40 -2 110 -8 155 -12 115 -10
724 -6 713 4 -6 7 -102 10 -355 14 -72 1 -120 6 -116 11 3 5 11 9 17 8 7 -2
53 1 102 6 50 5 95 8 102 7 6 -2 14 2 17 7 4 5 -2 9 -11 9 -10 -1 -40 2 -68 5
-27 4 -77 9 -110 13 -122 13 -130 19 -36 28 38 4 80 9 93 11 13 2 82 11 153
20 72 10 136 20 143 24 7 4 -30 15 -83 25 -53 10 -94 20 -92 22 2 3 26 7 53
10 27 2 60 6 74 9 14 2 52 6 85 10 33 3 69 8 80 10 11 2 33 4 49 4 16 1 27 3
25 6 -7 6 -56 13 -153 20 -44 4 -93 8 -110 10 -17 2 -67 6 -111 10 -44 4 -81
8 -83 9 -1 2 57 16 130 32 73 16 122 30 108 31 -14 1 -190 4 -391 5 -273 2
-370 6 -381 15 -8 7 -17 11 -19 9 -12 -12 -133 -18 -394 -22 -300 -3 -309 -1
-131 30 61 11 36 16 -30 6 -32 -5 -88 -12 -124 -15 -36 -4 -78 -9 -95 -11 -79
-10 -126 -14 -200 -19 -157 -10 -251 -16 -300 -20 -27 -2 -95 -7 -150 -10 -55
-4 -120 -9 -145 -10 -25 -2 -103 -6 -175 -10 -71 -3 -157 -8 -190 -10 -33 -2
-133 -7 -222 -10 l-163 -7 -1 159 c-1 87 -1 161 0 166 0 4 -3 7 -8 7 -5 0 -10
-64 -11 -142 -3 -192 -3 -188 -12 -188 -4 0 -9 27 -9 60 -1 33 -3 65 -4 70 -1
6 -3 33 -4 62 -2 74 -9 55 -17 -43 -4 -46 -8 -91 -10 -99 -1 -8 -3 -25 -3 -38
-1 -28 -23 -25 -27 3 -2 10 -6 55 -9 99 -4 45 -9 89 -11 100 -2 10 -6 51 -10
90 -12 140 -18 153 -29 64 -5 -35 -9 -66 -10 -70 -2 -5 -3 -19 -4 -33 0 -14
-5 -25 -10 -25 -5 0 -12 39 -16 88 -4 48 -8 94 -10 102 -1 8 -6 58 -10 110 -7
97 -14 130 -16 69z m-781 -684 c2 -2 -24 -7 -59 -11 l-64 -8 95 -17 c52 -9 82
-18 65 -19 -16 -1 -39 -3 -50 -6 -11 -2 -42 -7 -70 -10 -84 -11 -66 -16 50
-14 155 3 182 0 116 -11 -63 -11 -70 -15 -51 -32 10 -10 11 -9 5 1 -6 11 16
13 126 8 74 -3 199 -9 279 -12 80 -4 159 -8 175 -9 17 -2 39 -3 51 -4 21 -1
21 -4 17 -123 -2 -67 -9 -128 -14 -135 -6 -7 -9 -16 -6 -20 3 -4 8 -45 11 -90
5 -64 4 -83 -6 -84 -7 0 -26 -2 -43 -4 -16 -2 -88 -6 -160 -9 -71 -3 -196 -8
-277 -12 l-148 -6 -1 158 c-1 88 -2 189 -2 227 0 37 -3 65 -6 61 -7 -6 -7 -18
-11 -267 -2 -92 -7 -170 -11 -173 -5 -3 -10 21 -10 53 -1 32 -2 63 -4 68 -1 6
-3 37 -3 69 -3 81 -10 67 -18 -33 -3 -45 -7 -90 -9 -99 -2 -9 -4 -29 -4 -44
-1 -33 -27 -38 -27 -5 -1 31 -14 157 -29 282 -3 28 -8 67 -10 88 -2 21 -5 40
-7 43 -3 2 -10 -38 -17 -90 -7 -51 -17 -100 -22 -107 -8 -12 -9 -11 -8 1 3 13
-8 149 -16 220 -2 14 -6 61 -10 106 l-7 80 94 -3 c51 -3 94 -6 96 -8z m692
-124 c0 -8 -80 -4 -89 5 -2 2 17 4 42 4 26 0 47 -4 47 -9z m-985 -702 c5 -6
-10 -7 -40 -3 -65 9 -78 20 -17 16 26 -2 51 -8 57 -13z m630 -13 c220 -8 338
-16 345 -22 3 -3 5 -75 5 -160 1 -156 -7 -181 -20 -64 -14 133 -28 180 -20 69
2 -35 7 -109 10 -164 3 -55 8 -127 10 -160 18 -290 18 -275 -2 -276 -10 -1
-29 -2 -43 -4 -72 -7 -234 -15 -229 -11 2 3 16 6 31 8 15 2 30 7 34 11 3 3 -4
4 -17 2 -24 -4 -100 -10 -246 -21 -102 -7 -111 -8 -119 -17 -4 -4 6 -7 22 -8
16 0 38 -4 49 -9 16 -7 10 -9 -25 -11 l-45 -2 45 -7 c26 -4 35 -8 23 -10 -13
-1 -27 -4 -33 -5 -5 -1 -24 -3 -42 -4 -17 0 -29 -4 -26 -7 4 -3 50 -6 105 -6
54 -1 87 -3 73 -5 -37 -7 -45 -19 -13 -20 76 -1 362 -14 388 -18 29 -5 29 -4
-5 9 -34 14 -34 14 30 9 36 -3 66 -6 67 -7 1 -1 4 -58 7 -126 3 -69 8 -185 12
-257 l5 -133 -53 -1 c-29 -1 -69 -2 -88 -4 -19 -1 -98 -5 -175 -9 -77 -4 -167
-9 -200 -11 -71 -4 -165 -7 -181 -6 -11 1 -11 40 1 135 4 31 2 37 -11 32 -8
-3 -13 -2 -11 2 3 4 8 79 11 167 4 88 9 180 11 205 2 25 6 124 10 220 4 96 9
198 10 225 7 130 8 176 2 182 -4 3 -7 -7 -7 -23 0 -16 -5 -36 -11 -44 -8 -12
-9 -11 -5 5 3 11 8 74 12 140 4 66 8 126 9 135 2 8 4 31 4 51 l1 36 63 -3 c34
-1 139 -5 232 -8z m1158 -43 c-7 -2 -19 -2 -25 0 -7 3 -2 5 12 5 14 0 19 -2
13 -5z m1264 -19 c-3 -3 -12 -4 -19 -1 -8 3 -5 6 6 6 11 1 17 -2 13 -5z
m-2377 -728 c0 -2 -7 -7 -16 -10 -8 -3 -12 -2 -9 4 6 10 25 14 25 6z m-673
-278 c-3 -8 -6 -5 -6 6 -1 11 2 17 5 13 3 -3 4 -12 1 -19z m-307 -422 c0 -3
-4 -8 -10 -11 -5 -3 -10 -1 -10 4 0 6 5 11 10 11 6 0 10 -2 10 -4z"/>
<path d="M1375 4940 c-3 -5 -1 -10 4 -10 6 0 11 5 11 10 0 6 -2 10 -4 10 -3 0
-8 -4 -11 -10z"/>
<path d="M1828 3483 c6 -2 18 -2 25 0 6 3 1 5 -13 5 -14 0 -19 -2 -12 -5z"/>
<path d="M1363 3020 c0 -25 2 -35 4 -22 2 12 2 32 0 45 -2 12 -4 2 -4 -23z"/>
<path d="M2355 5721 c-3 -5 -2 -12 3 -15 5 -3 9 1 9 9 0 17 -3 19 -12 6z"/>
<path d="M2359 5678 c-6 -23 -7 -48 -1 -52 4 -2 7 9 7 25 1 24 -2 38 -6 27z"/>
<path d="M2350 5600 c0 -5 5 -10 10 -10 6 0 10 5 10 10 0 6 -4 10 -10 10 -5 0
-10 -4 -10 -10z"/>
<path d="M2352 5545 c0 -19 3 -35 8 -35 4 0 7 16 6 35 -1 46 -14 46 -14 0z"/>
<path d="M1778 5163 c6 -2 18 -2 25 0 6 3 1 5 -13 5 -14 0 -19 -2 -12 -5z"/>
<path d="M5598 4873 c7 -3 16 -2 19 1 4 3 -2 6 -13 5 -11 0 -14 -3 -6 -6z"/>
<path d="M788 4463 c6 -2 18 -2 25 0 6 3 1 5 -13 5 -14 0 -19 -2 -12 -5z"/>
<path d="M3468 3563 c7 -3 16 -2 19 1 4 3 -2 6 -13 5 -11 0 -14 -3 -6 -6z"/>
<path d="M3128 3293 c7 -3 16 -2 19 1 4 3 -2 6 -13 5 -11 0 -14 -3 -6 -6z"/>
<path d="M838 2783 c7 -3 16 -2 19 1 4 3 -2 6 -13 5 -11 0 -14 -3 -6 -6z"/>
</g>
</svg>
